<svg width="218" height="80" viewBox="0 0 218 80" fill="none" xmlns="http://www.w3.org/2000/svg">
<path d="M178 0H40C17.9086 0 0 17.9086 0 40C0 62.0914 17.9086 80 40 80H178C200.091 80 218 62.0914 218 40C218 17.9086 200.091 0 178 0Z" fill="#00CC96"/>
<path d="M56.712 39.312H62.104V41.328H56.712V39.312ZM56.904 43.92H63V46H54.328V34.8H62.792V36.88H56.904V43.92ZM70.4224 46.192C69.5584 46.192 68.753 46.0533 68.0064 45.776C67.2704 45.488 66.6304 45.0827 66.0864 44.56C65.5424 44.0373 65.1157 43.424 64.8064 42.72C64.5077 42.016 64.3584 41.2427 64.3584 40.4C64.3584 39.5573 64.5077 38.784 64.8064 38.08C65.1157 37.376 65.5424 36.7627 66.0864 36.24C66.641 35.7173 67.2864 35.3173 68.0224 35.04C68.7584 34.752 69.5637 34.608 70.4384 34.608C71.409 34.608 72.2837 34.7787 73.0624 35.12C73.8517 35.4507 74.513 35.9413 75.0464 36.592L73.3824 38.128C72.9984 37.6907 72.5717 37.3653 72.1024 37.152C71.633 36.928 71.121 36.816 70.5664 36.816C70.0437 36.816 69.5637 36.9013 69.1264 37.072C68.689 37.2427 68.3104 37.488 67.9904 37.808C67.6704 38.128 67.4197 38.5067 67.2384 38.944C67.0677 39.3813 66.9824 39.8667 66.9824 40.4C66.9824 40.9333 67.0677 41.4187 67.2384 41.856C67.4197 42.2933 67.6704 42.672 67.9904 42.992C68.3104 43.312 68.689 43.5573 69.1264 43.728C69.5637 43.8987 70.0437 43.984 70.5664 43.984C71.121 43.984 71.633 43.8773 72.1024 43.664C72.5717 43.44 72.9984 43.104 73.3824 42.656L75.0464 44.192C74.513 44.8427 73.8517 45.3387 73.0624 45.68C72.2837 46.0213 71.4037 46.192 70.4224 46.192ZM82.0024 46.192C81.117 46.192 80.2957 46.048 79.5384 45.76C78.7917 45.472 78.141 45.0667 77.5864 44.544C77.0424 44.0213 76.6157 43.408 76.3064 42.704C76.0077 42 75.8584 41.232 75.8584 40.4C75.8584 39.568 76.0077 38.8 76.3064 38.096C76.6157 37.392 77.0477 36.7787 77.6024 36.256C78.157 35.7333 78.8077 35.328 79.5544 35.04C80.301 34.752 81.1117 34.608 81.9864 34.608C82.8717 34.608 83.6824 34.752 84.4184 35.04C85.165 35.328 85.8104 35.7333 86.3544 36.256C86.909 36.7787 87.341 37.392 87.6504 38.096C87.9597 38.7893 88.1144 39.5573 88.1144 40.4C88.1144 41.232 87.9597 42.0053 87.6504 42.72C87.341 43.424 86.909 44.0373 86.3544 44.56C85.8104 45.072 85.165 45.472 84.4184 45.76C83.6824 46.048 82.877 46.192 82.0024 46.192ZM81.9864 43.984C82.4877 43.984 82.9464 43.8987 83.3624 43.728C83.789 43.5573 84.1624 43.312 84.4824 42.992C84.8024 42.672 85.0477 42.2933 85.2184 41.856C85.3997 41.4187 85.4904 40.9333 85.4904 40.4C85.4904 39.8667 85.3997 39.3813 85.2184 38.944C85.0477 38.5067 84.8024 38.128 84.4824 37.808C84.173 37.488 83.805 37.2427 83.3784 37.072C82.9517 36.9013 82.4877 36.816 81.9864 36.816C81.485 36.816 81.021 36.9013 80.5944 37.072C80.1784 37.2427 79.8104 37.488 79.4904 37.808C79.1704 38.128 78.9197 38.5067 78.7384 38.944C78.5677 39.3813 78.4824 39.8667 78.4824 40.4C78.4824 40.9227 78.5677 41.408 78.7384 41.856C78.9197 42.2933 79.165 42.672 79.4744 42.992C79.7944 43.312 80.1677 43.5573 80.5944 43.728C81.021 43.8987 81.485 43.984 81.9864 43.984ZM90.0624 46V34.8H92.2064L96.9744 42.704H95.8384L100.526 34.8H102.654L102.686 46H100.254L100.238 38.528H100.686L96.9424 44.816H95.7744L91.9504 38.528H92.4944V46H90.0624ZM105.344 46V34.8H107.488L112.256 42.704H111.12L115.808 34.8H117.936L117.968 46H115.536L115.52 38.528H115.968L112.224 44.816H111.056L107.232 38.528H107.776V46H105.344ZM123.009 39.312H128.401V41.328H123.009V39.312ZM123.201 43.92H129.297V46H120.625V34.8H129.089V36.88H123.201V43.92ZM131.359 46V34.8H136.207C137.21 34.8 138.074 34.9653 138.799 35.296C139.525 35.616 140.085 36.08 140.479 36.688C140.874 37.296 141.071 38.0213 141.071 38.864C141.071 39.696 140.874 40.416 140.479 41.024C140.085 41.6213 139.525 42.08 138.799 42.4C138.074 42.72 137.21 42.88 136.207 42.88H132.799L133.951 41.744V46H131.359ZM138.479 46L135.679 41.936H138.447L141.279 46H138.479ZM133.951 42.032L132.799 40.816H136.063C136.863 40.816 137.461 40.6453 137.855 40.304C138.25 39.952 138.447 39.472 138.447 38.864C138.447 38.2453 138.25 37.7653 137.855 37.424C137.461 37.0827 136.863 36.912 136.063 36.912H132.799L133.951 35.68V42.032ZM148.485 46.192C147.621 46.192 146.816 46.0533 146.069 45.776C145.333 45.488 144.693 45.0827 144.149 44.56C143.605 44.0373 143.178 43.424 142.869 42.72C142.57 42.016 142.421 41.2427 142.421 40.4C142.421 39.5573 142.57 38.784 142.869 38.08C143.178 37.376 143.605 36.7627 144.149 36.24C144.704 35.7173 145.349 35.3173 146.085 35.04C146.821 34.752 147.626 34.608 148.501 34.608C149.472 34.608 150.346 34.7787 151.125 35.12C151.914 35.4507 152.576 35.9413 153.109 36.592L151.445 38.128C151.061 37.6907 150.634 37.3653 150.165 37.152C149.696 36.928 149.184 36.816 148.629 36.816C148.106 36.816 147.626 36.9013 147.189 37.072C146.752 37.2427 146.373 37.488 146.053 37.808C145.733 38.128 145.482 38.5067 145.301 38.944C145.13 39.3813 145.045 39.8667 145.045 40.4C145.045 40.9333 145.13 41.4187 145.301 41.856C145.482 42.2933 145.733 42.672 146.053 42.992C146.373 43.312 146.752 43.5573 147.189 43.728C147.626 43.8987 148.106 43.984 148.629 43.984C149.184 43.984 149.696 43.8773 150.165 43.664C150.634 43.44 151.061 43.104 151.445 42.656L153.109 44.192C152.576 44.8427 151.914 45.3387 151.125 45.68C150.346 46.0213 149.466 46.192 148.485 46.192ZM157.243 39.312H162.635V41.328H157.243V39.312ZM157.435 43.92H163.531V46H154.859V34.8H163.323V36.88H157.435V43.92Z" fill="white"/>
<path d="M91.0818 20.107C90.9598 20.122 90.5948 20.163 90.1338 20.21C89.8138 20.243 89.5018 20.269 89.2928 20.286C88.8768 19.529 88.1388 19 87.2168 19C86.4918 19 85.9028 19.225 85.4078 19.843C84.9928 20.362 84.7228 21.078 84.4598 21.45C82.3188 24.484 78.9068 25.014 74.9068 25.014C73.9848 25.014 73.0908 24.9 72.2278 24.702C72.0888 24.67 71.9528 24.81 72.0158 24.938C73.6338 28.211 77.4918 30.576 80.6258 31.094V35.141H81.5388V31.19C81.6298 31.194 81.7228 31.204 81.8118 31.204C82.3758 31.208 82.8838 31.163 83.3658 31.092V35.141H84.2788V30.904C85.7578 30.501 86.8538 29.7 87.8038 28.544C88.9488 27.151 89.6168 24.676 89.6568 22.267C89.8068 22.114 90.1508 21.754 90.3828 21.442C90.9168 20.728 91.3348 20.075 91.0818 20.107ZM87.4248 21.708C87.0488 21.708 86.7438 21.403 86.7438 21.027C86.7438 20.651 87.0488 20.346 87.4248 20.346C87.8008 20.346 88.1058 20.651 88.1058 21.027C88.1058 21.403 87.8008 21.708 87.4248 21.708Z" fill="white"/>
</svg>
